<svg id="Group_154724" data-name="Group 154724" xmlns="http://www.w3.org/2000/svg" xmlns:xlink="http://www.w3.org/1999/xlink" width="20.743" height="21.641" viewBox="0 0 20.743 21.641">
  <defs>
    <clipPath id="clip-path">
      <rect id="Rectangle_161302" data-name="Rectangle 161302" width="1.247" height="4.521" fill="none"/>
    </clipPath>
  </defs>
  <path id="Path_5554" data-name="Path 5554" d="M594.729,396.906a1.132,1.132,0,0,1,1.606-.52l3.009,1.643.677.318.145-.279-2.951-2.265-.012-.009-2.447-2a1.132,1.132,0,0,1-.136-1.62l.078-.089a1.133,1.133,0,0,1,1.548-.15l4.628,3.608.533.37.287-.33-2-1.895-3.342-3.194a1.127,1.127,0,0,1-.084-1.574l.061-.07a1.133,1.133,0,0,1,1.6-.109l3.589,3.129.019.017,1.538,1.5.778.563.117-.077-1.076-1.662-3.088-3.132a1.132,1.132,0,0,1,.05-1.637l.113-.1a1.134,1.134,0,0,1,1.549.034l3.2,3.138a.45.45,0,0,1,.045.052l2.046,2.7,1.041.519-.07-.359-1.287-1.762a1.224,1.224,0,0,1,1.876-1.565l2.724,2.868a.467.467,0,0,1,.085.125l1.493,3.219a.466.466,0,0,1,.021.054,7.871,7.871,0,0,1,.276,3.9,8.743,8.743,0,0,1-1.927,3.981,4.642,4.642,0,0,1-3.195,1.77,3.54,3.54,0,0,1-1.209-.164A4.554,4.554,0,0,1,604.6,405l-4.6-3.427-4.866-3.269a1.13,1.13,0,0,1-.4-1.4" transform="translate(-592.354 -384.372)" fill="#fede3a"/>
  <path id="Path_5555" data-name="Path 5555" d="M1094.346,298.722l.009,0a3.2,3.2,0,0,1,1.52.919,3.345,3.345,0,0,1,.825,1.571c.21.946-.22.99-.312.711,0,0,0,0,0-.005a4.61,4.61,0,0,0-1-1.82,4.95,4.95,0,0,0-1.756-1.1l-.01,0c-.258-.1-.176-.469.724-.272" transform="translate(-1082.399 -297.606)" fill="#401800"/>
  <path id="Path_5556" data-name="Path 5556" d="M1206.533,240.651l.005,0a2.085,2.085,0,0,1,.99.6,2.177,2.177,0,0,1,.537,1.023c.137.616-.143.645-.2.463,0,0,0,0,0,0a3,3,0,0,0-.649-1.185,3.224,3.224,0,0,0-1.144-.719l-.007,0c-.168-.064-.114-.305.471-.177" transform="translate(-1192.83 -240.614)" fill="#401800"/>
  <path id="Path_5557" data-name="Path 5557" d="M559.029,1098.1s0,.007,0,.009a3.2,3.2,0,0,0,.667,1.646,3.345,3.345,0,0,0,1.421,1.063c.9.357,1.012-.061.752-.2,0,0,0,0,0,0a4.605,4.605,0,0,1-1.639-1.272,4.946,4.946,0,0,1-.812-1.909.058.058,0,0,1,0-.011c-.057-.271-.435-.248-.383.672" transform="translate(-557.683 -1081.648)" fill="#401800"/>
  <g id="Group_142180" data-name="Group 142180" transform="translate(14.343 9.896)" style="mix-blend-mode: multiply;isolation: isolate">
    <g id="Group_142179" data-name="Group 142179" transform="translate(0 0)">
      <g id="Group_142178" data-name="Group 142178" clip-path="url(#clip-path)">
        <path id="Path_5558" data-name="Path 5558" d="M1271.875,783.431l0,.008a3.2,3.2,0,0,0-.452,1.718,3.336,3.336,0,0,0,.5,1.7c.507.826.846.558.719.294,0,0,0,0,0-.006a4.613,4.613,0,0,1-.55-2,4.959,4.959,0,0,1,.493-2.015l0-.01c.117-.251-.2-.459-.708.309" transform="translate(-1271.417 -782.893)" fill="#ffc92e"/>
      </g>
    </g>
  </g>
  <path id="Path_5559" data-name="Path 5559" d="M485.516,1199.181s0,0,0,.006a2.089,2.089,0,0,0,.434,1.072,2.177,2.177,0,0,0,.925.692c.587.232.659-.039.49-.127l0,0a3,3,0,0,1-1.068-.828,3.228,3.228,0,0,1-.529-1.243.064.064,0,0,1,0-.007c-.037-.176-.283-.161-.249.438" transform="translate(-485.512 -1181.162)" fill="#401800"/>
</svg>
