<svg xmlns="http://www.w3.org/2000/svg" xmlns:xlink="http://www.w3.org/1999/xlink" width="203.584" height="209.313" viewBox="0 0 203.584 209.313">
  <defs>
    <clipPath id="clip-path">
      <rect id="Rectangle_161316" data-name="Rectangle 161316" width="148.135" height="167.202" transform="translate(0)" fill="#fff"/>
    </clipPath>
  </defs>
  <g id="Group_151136" data-name="Group 151136" transform="translate(-44.498 175.18)">
    <g id="Group_151092" data-name="Group 151092" transform="translate(44.498 5.03)">
      <g id="Group_151090" data-name="Group 151090" transform="translate(0 22.095)">
        <g id="Group_151085" data-name="Group 151085" transform="translate(0 0.02)">
          <path id="Path_576" data-name="Path 576" d="M5.373,145.483c-.416-.152-.826-.311-1.241-.452a2.346,2.346,0,0,0-2.6.687,2.663,2.663,0,0,0-.641,2.815,2.277,2.277,0,0,0,2.12,1.7,8.572,8.572,0,0,0,1.47-.05c.137-.015.254-.222.374-.346.017-.018.006-.061.009-.093.127-1.326.127-1.318-1.238-1.339-.293,0-.745.156-.7-.407.01-.131.192-.35.3-.356.712-.035,1.428-.036,2.14-.007a.475.475,0,0,1,.312.339,17.471,17.471,0,0,1,0,2.086.826.826,0,0,1-.417.6,4.8,4.8,0,0,1-3.3.181,2.629,2.629,0,0,1-1.919-2.361,7.188,7.188,0,0,1,.065-2.072,2.577,2.577,0,0,1,2.508-2.074,13.364,13.364,0,0,1,2.133.079c.671.088.79.351.622,1.072" transform="translate(0 -144.202)" fill="#fff"/>
          <path id="Path_578" data-name="Path 578" d="M54.762,150.808a.679.679,0,0,1-.928-.416c-.21-.441-.363-.912-.595-1.339a.773.773,0,0,0-.507-.373c-.582-.049-1.171-.011-1.757-.026a.594.594,0,0,0-.669.514,9.559,9.559,0,0,1-.462,1.239.652.652,0,0,1-.292.346,2.158,2.158,0,0,1-.592.066,1.572,1.572,0,0,1,.013-.525c.711-1.822,1.438-3.638,2.163-5.455a1.232,1.232,0,0,1,.178-.333c.145-.176.313-.333.471-.5.176.17.429.308.515.515.8,1.921,1.578,3.853,2.355,5.784a3.17,3.17,0,0,1,.107.5m-2.006-2.813-.91-2.449-1.039,2.449Z" transform="translate(-30.284 -144.007)" fill="#fff"/>
          <path id="Path_580" data-name="Path 580" d="M23.621,150.881c-.811.128-.952.049-1.183-.61-.073-.209-.135-.421-.213-.628-.311-.832-.312-.831-1.182-.848-1.683-.033-1.679-.031-2.332,1.538-.115.276-.13.644-.553.688-.294.031-.476-.048-.425-.381a2.33,2.33,0,0,1,.122-.5c.722-1.82,1.443-3.64,2.192-5.449a.762.762,0,0,1,.507-.4.651.651,0,0,1,.522.3c.285.544.518,1.116.75,1.685q.806,1.974,1.59,3.956c.08.2.13.412.205.656m-3.038-5.165-.949,2.466h2l-1.055-2.466" transform="translate(-10.967 -144.18)" fill="#fff"/>
          <path id="Path_583" data-name="Path 583" d="M35.208,150.219h3.267c.678,0,.7.034.491.747H34.228c-.4,0-.345-.3-.256-.5a5.51,5.51,0,0,1,.6-1.013c1.06-1.42,2.136-2.828,3.2-4.242a2.017,2.017,0,0,0,.126-.31c-1.083,0-2.089,0-3.095,0a.941.941,0,0,1-.373-.04.345.345,0,0,1-.18-.246c0-.069.112-.179.2-.206a1.572,1.572,0,0,1,.469-.062c1.206-.006,2.412-.011,3.618,0,.592,0,.7.169.415.686a8.741,8.741,0,0,1-.685,1.024c-.87,1.168-1.751,2.327-2.623,3.493-.138.185-.254.387-.44.673" transform="translate(-20.981 -144.213)" fill="#fff"/>
        </g>
        <g id="Group_151088" data-name="Group 151088" transform="translate(91.622 0.014)">
          <path id="Path_565" data-name="Path 565" d="M280.836,149.535c.275-.673.518-1.283.772-1.889.428-1.019.878-2.029,1.289-3.055.193-.481.58-.4.912-.326.131.031.271.352.273.542.019,2.005.012,4.011.012,6.047-.128.013-.251.02-.372.037-.446.064-.556-.123-.546-.562.033-1.359.012-2.719.012-4.03-.781,1.529-1.339,3.224-2.178,4.793a1.315,1.315,0,0,1-.91-.836c-.575-1.418-1.145-2.837-1.772-4.394v4.97c-.751.128-.814.081-.816-.563,0-1.835-.009-3.67,0-5.5,0-.174.1-.486.185-.5.326-.044.722-.158.931.249.165.323.308.657.449.992.515,1.222,1.024,2.447,1.539,3.669a3.38,3.38,0,0,0,.217.356" transform="translate(-263.332 -144.125)" fill="#fff"/>
          <path id="Path_567" data-name="Path 567" d="M300.056,150.849c-.769.112-.794.092-.794-.563q0-2.754,0-5.507v-.441c.072-.035.1-.06.127-.061,1.149-.038.929-.187,1.338.867q.8,2.076,1.628,4.145a1.361,1.361,0,0,0,.213.262,2.968,2.968,0,0,0,.2-.337c.6-1.461,1.191-2.926,1.8-4.384.27-.647.33-.676.993-.542a.446.446,0,0,1,.281.317c.021,1.978.016,3.956.028,5.934,0,.3-.132.366-.4.368-.314,0-.475-.093-.469-.43.021-1.091.03-2.183.042-3.274a4.785,4.785,0,0,0-.071-1.023l-1.313,3.12a13.578,13.578,0,0,1-.543,1.26c-.1.18-.345.4-.51.393a.823.823,0,0,1-.564-.4c-.268-.517-.464-1.071-.684-1.612-.34-.834-.676-1.669-1.018-2.5a.484.484,0,0,0-.275-.257Z" transform="translate(-276.792 -144.135)" fill="#fff"/>
          <path id="Path_572" data-name="Path 572" d="M259.741,144.25a3.194,3.194,0,0,1,3.384,3.472,3.418,3.418,0,1,1-6.831-.282,3.127,3.127,0,0,1,3.446-3.191m2.446,3.247c0-.074.007-.232,0-.39a2.528,2.528,0,0,0-3.23-2.1,2.743,2.743,0,0,0-1.651,3.364,2.3,2.3,0,0,0,1.671,1.773,2.5,2.5,0,0,0,3.212-2.646" transform="translate(-250.204 -144.151)" fill="#fff"/>
          <path id="Path_574" data-name="Path 574" d="M338.763,148.15c.464.7.894,1.345,1.31,1.994.152.237.274.494.41.744a.854.854,0,0,1-1.228-.345c-.411-.637-.8-1.292-1.19-1.941a1.515,1.515,0,0,0-1.59-.443c-.095.06-.132.268-.133.408-.008.664-.01,1.329.016,1.992.012.317-.1.414-.41.408-.282-.005-.489-.005-.486-.386.018-1.977.02-3.953.019-5.93,0-.255.108-.323.345-.321.809.006,1.619-.02,2.427,0a1.876,1.876,0,0,1,1.891,1.5,1.972,1.972,0,0,1-1.023,2.111c-.12.068-.238.141-.358.213m-2.421-2.034c0,.316-.019.633.011.945.01.1.146.275.223.274a15.2,15.2,0,0,0,1.889-.1,1.024,1.024,0,0,0,.8-.95,1.076,1.076,0,0,0-.685-1.086,4.369,4.369,0,0,0-1.056-.244c-1.177-.1-1.178-.084-1.178,1.061,0,.031,0,.063,0,.095" transform="translate(-299.19 -144.196)" fill="#fff"/>
          <path id="Path_584" data-name="Path 584" d="M368.748,147.86v2.353c.922,0,1.806,0,2.689,0,.563,0,.623.069.611.707a3.351,3.351,0,0,1-.358.038c-1.143,0-2.286,0-3.429.007-.25,0-.438-.018-.438-.336,0-2.009-.008-4.018.005-6.026a.388.388,0,0,1,.27-.268c1.158-.013,2.317-.008,3.475.019.119,0,.234.181.35.279-.122.093-.242.262-.367.266-.824.03-1.65.032-2.475.025-.276,0-.406.07-.4.374.019.6.006,1.2.006,1.873h2.148a1.078,1.078,0,0,1,.424.013,2.166,2.166,0,0,1,.423.343c-.142.111-.28.311-.426.317-.82.031-1.643.015-2.512.015" transform="translate(-319.213 -144.201)" fill="#fff"/>
          <path id="Path_586" data-name="Path 586" d="M321.916,144.917v2.257h1.889c.238,0,.476.007.714,0s.406.062.4.338a.334.334,0,0,1-.385.369c-.854,0-1.708,0-2.591,0v2.336c.957,0,1.9.02,2.85-.01.409-.013.511.172.446.5a.374.374,0,0,1-.263.24c-1.281.016-2.562.011-3.889.011v-6.628c.209,0,.425,0,.64,0,1.015,0,2.031,0,3.046.024.148,0,.292.16.438.246-.15.1-.3.286-.45.294-.664.034-1.331.018-2,.019h-.848" transform="translate(-290.296 -144.203)" fill="#fff"/>
          <path id="Path_588" data-name="Path 588" d="M355.529,145.389c-.446-.181-.817-.362-1.206-.485a2.547,2.547,0,0,0-3.19,1.5,2.756,2.756,0,0,0,1.082,3.437,3.147,3.147,0,0,0,2.76-.042c.293-.12.576-.219.648.2a.551.551,0,0,1-.2.475,4.651,4.651,0,0,1-3.384.169,3.308,3.308,0,0,1-2.058-3.138,3.05,3.05,0,0,1,1.982-3.149,4.466,4.466,0,0,1,3.512.15c.462.232.088.56.056.881" transform="translate(-308.174 -144.041)" fill="#fff"/>
          <path id="Path_589" data-name="Path 589" d="M243.9,143.992c.595.13,1.2.236,1.782.4a.389.389,0,0,1,.29.586c-.163.324-.4.223-.645.112a2.818,2.818,0,0,0-3.053.157,2.778,2.778,0,0,0,.336,4.57,3.325,3.325,0,0,0,2.638-.024c.245-.085.511-.215.65.108a.485.485,0,0,1-.1.454,4.232,4.232,0,0,1-4.167-.122,3.648,3.648,0,0,1-1.188-3.76,3.124,3.124,0,0,1,3.453-2.482" transform="translate(-240.324 -143.992)" fill="#fff"/>
        </g>
        <g id="Group_151086" data-name="Group 151086" transform="translate(27.92 0.062)">
          <path id="Path_566" data-name="Path 566" d="M128.867,149.537c.281-.681.518-1.259.759-1.836.425-1.021.847-2.043,1.284-3.058a.672.672,0,0,1,.955-.413.552.552,0,0,1,.251.425c.028.87.024,1.74.026,2.611,0,1.17,0,2.339,0,3.571-.156.008-.323.01-.488.028-.338.035-.43-.113-.426-.441.017-1.4.007-2.807.007-4.153-.848,1.511-1.3,3.268-2.216,4.8l-.2.021a4.066,4.066,0,0,1-.64-.823c-.609-1.42-1.174-2.859-1.819-4.3v4.848c-.726.144-.8.087-.8-.567,0-1.8-.012-3.608,0-5.412,0-.2.085-.563.187-.584.356-.074.78-.151.977.324.248.6.493,1.2.743,1.8q.558,1.334,1.124,2.664c.059.138.145.265.278.5" transform="translate(-105.607 -144.145)" fill="#fff"/>
          <path id="Path_570" data-name="Path 570" d="M147.343,144.39c.99,0,1.943-.049,2.888.018a1.492,1.492,0,0,1,1.393.92,1.648,1.648,0,0,1-.283,1.858c-.182.18-.169.278.047.439a2.047,2.047,0,0,1,.675,2.1,1.386,1.386,0,0,1-1.33,1.118c-1.111.131-2.236.139-3.39.2Zm.744,5.841c.753,0,1.463.021,2.17-.007a1.2,1.2,0,0,0,1.049-.953,1.04,1.04,0,0,0-.7-1.157,5.081,5.081,0,0,0-2.515-.165Zm.005-2.95c.725-.1,1.4-.165,2.057-.3a.8.8,0,0,0,.711-.772.939.939,0,0,0-.613-1.012,4.831,4.831,0,0,0-2.156-.235Z" transform="translate(-119.09 -144.275)" fill="#fff"/>
          <path id="Path_573" data-name="Path 573" d="M180.893,148.138l1.743,2.794a.98.98,0,0,1-1.327-.456c-.4-.644-.793-1.292-1.189-1.939a1.615,1.615,0,0,0-1.576-.365c-.1.084-.109.311-.111.474-.011.753,0,1.506,0,2.3a1.587,1.587,0,0,1-.54.011c-.134-.048-.321-.213-.322-.327-.011-1.991.006-3.982.008-5.973,0-.259.12-.317.351-.316.809.006,1.618-.021,2.426,0a1.9,1.9,0,0,1,1.923,1.64,2.124,2.124,0,0,1-1.059,1.965c-.119.068-.234.144-.321.2m-2.464-1.975a8.959,8.959,0,0,0,.011.9c.01.1.145.278.221.277a15.525,15.525,0,0,0,1.894-.092,1.072,1.072,0,0,0,.091-2.049,5.543,5.543,0,0,0-1.392-.243c-.951-.023-.849-.094-.825.828,0,.126,0,.253,0,.379" transform="translate(-137.788 -144.247)" fill="#fff"/>
          <path id="Path_579" data-name="Path 579" d="M113.438,150.846c-.581.13-.861.017-1.079-.465-.189-.416-.313-.862-.514-1.272a.692.692,0,0,0-.441-.367c-.615-.045-1.234-.015-1.852-.027a.557.557,0,0,0-.586.442c-.148.416-.316.825-.5,1.228a.9.9,0,0,1-.31.4,1.626,1.626,0,0,1-.528.106c-.026-.159-.114-.342-.066-.474.349-.964.719-1.921,1.1-2.874.354-.9.725-1.783,1.091-2.674a2.29,2.29,0,0,1,.207-.424c.31-.453.687-.446.908.05.493,1.11.957,2.233,1.42,3.356.337.817.657,1.641.98,2.464.067.172.115.351.172.528m-1.99-2.775-1.048-2.439c-.315.79-.6,1.48-.855,2.178-.019.053.141.245.223.249.518.023,1.037.012,1.679.012" transform="translate(-94.467 -144.117)" fill="#fff"/>
          <path id="Path_582" data-name="Path 582" d="M91.769,147.116h3.645c0-.546,0-1.077,0-1.608a7.745,7.745,0,0,1,.02-.853,1.319,1.319,0,0,1,.185-.388,2.577,2.577,0,0,1,.433.31c.063.066.056.21.057.319.012,1.865.026,3.731.021,5.6,0,.156-.091.407-.2.451-.307.119-.523-.007-.52-.38.006-.759,0-1.519.018-2.277.01-.337-.066-.476-.446-.466-1.042.028-2.086.01-3.181.01,0,.959.007,1.823,0,2.687,0,.435-.158.558-.562.407a.58.58,0,0,1-.31-.427c-.017-1.945,0-3.89-.006-5.835,0-.3.135-.381.409-.368.256.013.461.012.45.375-.023.8-.007,1.605-.007,2.446" transform="translate(-84.175 -144.21)" fill="#fff"/>
          <path id="Path_587" data-name="Path 587" d="M163.312,150.917c0-.23,0-.446,0-.663,0-1.85.011-3.7,0-5.55,0-.261.051-.38.332-.377,1.127.012,2.255,0,3.381.03.132,0,.26.186.389.286-.14.09-.276.252-.419.257-.809.028-1.619.043-2.427.011-.353-.014-.442.088-.429.42.023.583.006,1.167.006,1.808h2.917v.75H164.2v2.305h3.232l.162.723Z" transform="translate(-128.971 -144.247)" fill="#fff"/>
          <path id="Path_590" data-name="Path 590" d="M73.236,147.577a3.007,3.007,0,0,1,1.681-3.037,3.534,3.534,0,0,1,1.327-.281,4.268,4.268,0,0,1,2.239.249c.274.144.467.221.3.583-.159.346-.335.315-.631.168a2.7,2.7,0,0,0-3.116.2,2.776,2.776,0,0,0,.234,4.409,3.071,3.071,0,0,0,2.618.129c.136-.039.273-.151.4-.137a.655.655,0,0,1,.443.215c.059.09-.042.293-.093.439-.016.047-.1.079-.156.1a4.506,4.506,0,0,1-3.022.211,3.008,3.008,0,0,1-2.223-3.252" transform="translate(-73.236 -144.186)" fill="#fff"/>
        </g>
        <g id="Group_151087" data-name="Group 151087" transform="translate(76.137 0.104)">
          <path id="Path_571" data-name="Path 571" d="M203.368,144.252a2.459,2.459,0,0,1,2.209.825,3.366,3.366,0,0,1,1.066,2.515c-.21,2.17-1.381,3.461-3.751,3.394a3.389,3.389,0,0,1-3.183-3.381c.026-2.1,1.358-3.382,3.659-3.354m2.372,3.294a2.566,2.566,0,1,0-5.122.029,2.563,2.563,0,1,0,5.122-.029" transform="translate(-199.708 -144.227)" fill="#fff"/>
          <path id="Path_591" data-name="Path 591" d="M221.685,147.83v2.053c0,.206-.009.412,0,.617.013.257.013.481-.348.473-.313-.007-.56-.038-.559-.452.008-2.008,0-4.017,0-6.025a1.072,1.072,0,0,1,.064-.21c1.352.1,2.73-.093,4.092.118q.023.118.047.236a1.875,1.875,0,0,1-.568.23c-.791.035-1.585.042-2.378.032-.319,0-.41.109-.4.417.022.594.006,1.19.006,1.826.794,0,1.474-.01,2.153,0,.321.007.807-.048.819.357.013.43-.479.3-.765.314-.7.027-1.392.009-2.167.009" transform="translate(-212.746 -144.264)" fill="#fff"/>
        </g>
        <g id="Group_151089" data-name="Group 151089" transform="translate(147.997)">
          <path id="Path_568" data-name="Path 568" d="M389.888,147.024c-.137-.172-.245-.3-.345-.433A1.354,1.354,0,0,1,390.6,144.3c.317.009.635-.006.952,0a1.051,1.051,0,0,1,1.1.8,1.321,1.321,0,0,1-.234,1.538,9.2,9.2,0,0,1-1.156.746l1.557,1.433c.067-.336.107-.563.159-.787a2.553,2.553,0,0,1,.145-.494c.13-.281.374-.523.664-.345a.781.781,0,0,1,.21.678,4.711,4.711,0,0,1-.452,1.189.5.5,0,0,0,.124.7c.363.335.693.708,1.091,1.122-.722.152-1.249.1-1.619-.462-.192-.293-.368-.29-.636-.026a3.333,3.333,0,0,1-3.45.272,1.943,1.943,0,0,1,.2-3.338c.189-.1.388-.189.634-.307m2.26,2.568c-.509-.563-1-1.122-1.51-1.655a.673.673,0,0,0-.463-.176,1.485,1.485,0,0,0-1.1,1,1.372,1.372,0,0,0,.637,1.331,2.117,2.117,0,0,0,2.434-.5m-1.036-4.693c-.672,0-1.061.23-1.066.625-.006.48.47,1.156.815,1.16.406,0,1.1-.607,1.1-.965a.821.821,0,0,0-.851-.82" transform="translate(-388.197 -144.171)" fill="#fff"/>
          <path id="Path_569" data-name="Path 569" d="M422.862,145.778v5.08c-.768.127-.856.058-.854-.658.006-1.787.012-3.574.034-5.361,0-.19.1-.541.167-.542.353-.009.775-.242,1.046.188.354.562.7,1.13,1.05,1.693.652,1.043,1.308,2.084,2.04,3.093,0-.741,0-1.482,0-2.223,0-.775-.008-1.55-.027-2.324-.007-.308.089-.472.425-.485a.4.4,0,0,1,.478.448c.013.427.011.854.011,1.281,0,1.439.01,2.878,0,4.318,0,.2-.054.564-.128.576-.341.056-.737.175-1-.192-.177-.242-.351-.489-.51-.743q-1.191-1.912-2.374-3.828c-.074-.118-.157-.23-.236-.345l-.119.026" transform="translate(-409.117 -144.123)" fill="#fff"/>
          <path id="Path_575" data-name="Path 575" d="M440.527,147.607c0-.95.01-1.9-.005-2.849-.005-.323.088-.45.432-.435.586.025,1.178-.033,1.762.011a3.11,3.11,0,0,1,2.838,1.846,3.375,3.375,0,0,1-.3,3.515,3.559,3.559,0,0,1-2.817,1.25c-.5.043-1.016,0-1.524.016-.308.011-.41-.093-.4-.411.021-.981.008-1.962.008-2.944h.013m.74,2.594c.487,0,.85.008,1.213,0a2.425,2.425,0,0,0,2.241-1.481,2.307,2.307,0,0,0-.408-2.761,3.477,3.477,0,0,0-2.773-1c-.091,0-.259.217-.26.334-.018,1.613-.012,3.225-.012,4.91" transform="translate(-420.563 -144.179)" fill="#fff"/>
          <path id="Path_577" data-name="Path 577" d="M510.922,150.826a.759.759,0,0,1-1.15-.208,19.5,19.5,0,0,1-1.289-2.044.783.783,0,0,0-.814-.486c-1.14.014-.992-.164-.964.967.013.522,0,1.045-.016,1.566a1.343,1.343,0,0,1-.149.395,2.928,2.928,0,0,1-.518-.267c-.063-.048-.053-.207-.053-.315q.005-2.967.018-5.935a1.876,1.876,0,0,1,.042-.233c1.2.164,2.447-.3,3.623.294a1.905,1.905,0,0,1-.146,3.294c-.443.206-.385.306-.121.653.551.724,1.014,1.515,1.54,2.318m-4.231-6.016c0,.856-.009,1.562.013,2.268,0,.079.177.217.274.219a15.73,15.73,0,0,0,1.615-.029.965.965,0,0,0,1.014-.874c.079-.7-.109-1.12-.755-1.286a18.628,18.628,0,0,0-2.162-.3" transform="translate(-461.068 -144.137)" fill="#fff"/>
          <path id="Path_581" data-name="Path 581" d="M463.16,146.739c0,.68.023,1.36-.006,2.039a2.015,2.015,0,0,1-1.7,2.049,4.053,4.053,0,0,1-2.3-.035,2.292,2.292,0,0,1-1.6-2.188c-.016-1.327.025-2.655.035-3.983,0-.254.044-.419.367-.4.3.017.459.079.46.432,0,1.264.018,2.529.071,3.791a1.583,1.583,0,0,0,1.8,1.733c1.4.028,2.075-.689,2.1-2.26.019-1.09,0-2.181.008-3.272,0-.212-.056-.487.3-.468.287.015.469.146.464.476-.011.7,0,1.391,0,2.087h0" transform="translate(-431.114 -144.092)" fill="#fff"/>
          <path id="Path_585" data-name="Path 585" d="M478.073,143.955c.591.148,1.189.27,1.768.454.282.09.493.287.27.655-.211.348-.4.219-.652.06a2.556,2.556,0,0,0-2-.39c-.4.094-.724.344-.717.716a1.228,1.228,0,0,0,.433.906,10.663,10.663,0,0,0,1.737.752,2.45,2.45,0,0,1,1.285,1.141,1.786,1.786,0,0,1-1.277,2.455,4.894,4.894,0,0,1-2.85-.255c-.072-.03-.177-.06-.2-.117a5.6,5.6,0,0,1-.167-.571,1.521,1.521,0,0,1,.565-.127,14.047,14.047,0,0,0,1.646.379,2.026,2.026,0,0,0,1.149-.331.864.864,0,0,0-.01-1.476,8.007,8.007,0,0,0-1.287-.594c-.232-.1-.483-.157-.712-.262-1.27-.582-1.2-1.1-1.115-2.316.029-.424.694-.908,1.2-.948.3-.024.6,0,.9,0Z" transform="translate(-442.343 -143.955)" fill="#fff"/>
          <path id="Path_592" data-name="Path 592" d="M524.968,144.393c-.635,1.023-1.235,2.025-1.871,3a2.841,2.841,0,0,0-.5,1.786c.034.548.007,1.1.007,1.637-.8.2-.956.137-.862-.591a5.141,5.141,0,0,0-1.129-3.791c-.369-.512-.677-1.067-1.007-1.607-.08-.13-.137-.273-.2-.411.6-.275.817-.24,1.115.23.532.839,1.04,1.693,1.6,2.61a3.105,3.105,0,0,0,.272-.331c.447-.744.871-1.5,1.336-2.236.339-.534.589-.578,1.242-.3" transform="translate(-469.381 -144.121)" fill="#fff"/>
          <path id="Path_593" data-name="Path 593" d="M491.283,144.945c-.572,0-1.092,0-1.61,0a1.2,1.2,0,0,1-.466-.049.458.458,0,0,1-.222-.307c-.01-.062.15-.153.235-.23a.075.075,0,0,1,.046-.008c1.618,0,3.237,0,4.855.027.1,0,.2.179.3.275-.106.089-.207.246-.319.254a12.514,12.514,0,0,1-1.567.041c-.4-.02-.464.128-.458.492.03,1.707.031,3.414.027,5.122a.569.569,0,0,1-.184.435.5.5,0,0,1-.473-.04.88.88,0,0,1-.171-.549c-.007-1.661,0-3.321.009-4.982,0-.124,0-.249,0-.48" transform="translate(-450.56 -144.199)" fill="#fff"/>
          <path id="Path_594" data-name="Path 594" d="M415.344,150.864v-6.506c.682-.2.817-.111.819.546.006,1.785,0,3.57.008,5.355,0,.729-.053.773-.828.605" transform="translate(-404.994 -144.146)" fill="#fff"/>
        </g>
      </g>
      <g id="Group_151091" data-name="Group 151091" transform="translate(0.049)">
        <g id="Group_151081" data-name="Group 151081" transform="translate(135.495 0.001)">
          <path id="Path_599" data-name="Path 599" d="M405.02,95.8h3.871V90c.661,0,1.276-.017,1.889.018.093.005.245.252.246.388.013,2.231.006,4.462,0,6.693,0,.215,0,.431,0,.658h-1.621q-7.478,0-14.957,0c-.429,0-.549-.09-.545-.551.023-3.291.015-6.583-.007-9.874,0-.438.115-.6.56-.551a5.219,5.219,0,0,0,.9.007c.356-.02.491.085.489.481-.019,2.674,0,5.348-.014,8.023,0,.382.082.52.492.515q3.048-.034,6.1-.007c.434,0,.558-.165.555-.547,0-.569.028-1.14.008-1.708a1.774,1.774,0,0,0-1.586-1.667,3.726,3.726,0,0,0-2.526.588l-.833-1.73a4.975,4.975,0,0,1,4.826-.652c1.819.894,2.523,2.651,2.149,5.71" transform="translate(-379.271 -86.48)" fill="#fff"/>
          <path id="Path_605" data-name="Path 605" d="M360.4,94.191c-.053-.621.249-.7.706-.664s.947.009,1.454.009v8.3c-.039.036-.062.075-.085.075-1.252-.01-2.512.052-3.756-.053a3.58,3.58,0,0,1-3.191-3.595,4.065,4.065,0,0,1,4.1-4.071c.235-.011.471,0,.772,0m-.617,5.885c.672-.114.666-.114.663-.738-.005-.9-.008-1.8,0-2.7,0-.253-.057-.422-.339-.364a6.71,6.71,0,0,0-1.59.385,1.661,1.661,0,0,0-.156,2.838,8.094,8.094,0,0,0,1.419.576" transform="translate(-355.529 -90.654)" fill="#fff"/>
          <path id="Path_606" data-name="Path 606" d="M380.724,99.488c0,1.423.088,2.853-.021,4.268-.164,2.127-1.923,2.52-3.5,2.194a.541.541,0,0,1-.311-.385c-.058-.437-.043-.884-.074-1.325-.022-.313.127-.4.4-.344,1.116.212,1.509-.013,1.552-1.442.067-2.23.045-4.463.03-6.695,0-.434.132-.555.543-.514a6.4,6.4,0,0,0,1.047,0c.278-.018.347.076.343.351-.016,1.3-.007,2.6-.007,3.893h0" transform="translate(-368.701 -91.717)" fill="#fff"/>
          <path id="Path_610" data-name="Path 610" d="M410.672,119.613c-.858,0-1.244-.31-1.239-1.011a1.15,1.15,0,0,1,1.2-1.143,1.246,1.246,0,0,1,1.277,1.136c0,.712-.369,1.013-1.236,1.018" transform="translate(-388.883 -105.466)" fill="#fff"/>
          <path id="Path_615" data-name="Path 615" d="M429.916,89.3c-.756,0-1.172-.347-1.181-.985a1.085,1.085,0,0,1,1.18-1.13A1.111,1.111,0,0,1,431.1,88.31c-.01.629-.44.989-1.183.989" transform="translate(-400.825 -86.734)" fill="#fff"/>
          <path id="Path_616" data-name="Path 616" d="M437.708,89.322c-.8.014-1.241-.348-1.243-1.029a1.1,1.1,0,0,1,1.215-1.055,1.066,1.066,0,0,1,1.141,1.1c.006.644-.36.967-1.113.981" transform="translate(-405.609 -86.767)" fill="#fff"/>
          <path id="Path_618" data-name="Path 618" d="M369.875,87.129a1,1,0,0,1-1.052.945c-.751-.135-1.287-.328-1.271-1.006.018-.73.361-1.054,1.152-1.056.85,0,1.172.305,1.17,1.117" transform="translate(-362.968 -86.009)" fill="#fff"/>
          <path id="Path_622" data-name="Path 622" d="M362.21,87.08a1.109,1.109,0,0,1-1.249,1,1.177,1.177,0,0,1-1.017-1.058c.035-.753.389-1.044,1.236-1.016.793.026,1.053.3,1.03,1.075" transform="translate(-358.26 -86.003)" fill="#fff"/>
        </g>
        <g id="Group_151082" data-name="Group 151082" transform="translate(84.08 0.003)">
          <path id="Path_597" data-name="Path 597" d="M268.34,97.809V86.915h1.989c0,.776,0,1.518,0,2.26,0,2.089.007,4.178-.011,6.267,0,.356.091.469.451.455.761-.028,1.525-.039,2.286,0,.364.016.435-.119.432-.431-.013-1.646,0-3.292-.029-4.937,0-.333.078-.461.419-.439.411.026.825.026,1.238.017.257-.006.315.1.313.342-.009,1.693.006,3.386-.007,5.079,0,.267.056.375.333.367.555-.016,1.111-.016,1.667-.016.26,0,.349-.1.346-.375-.019-1.661-.008-3.323-.032-4.983,0-.332.072-.451.416-.436.553.025,1.108.007,1.689.007,0,0,.035.015.04.04.139.685.138.7.868.7,1.064,0,2.128-.026,3.191-.025a5.158,5.158,0,0,1,1.088.084,2.9,2.9,0,0,1,2.59,2.8,37.213,37.213,0,0,1,.045,3.931c0,.08-.167.215-.267.226a7.24,7.24,0,0,1-.809,0h-17.96c-.077,0-.153-.017-.287-.032m14.418-1.932v.013c.507,0,1.014,0,1.521,0,1.281,0,1.281,0,1.261-1.289-.019-1.194-.533-1.726-1.743-1.745-1.156-.019-2.313.011-3.469-.007-.356-.005-.419.136-.408.451.025.725.037,1.453.008,2.177-.013.338.12.405.407.4.808-.008,1.616,0,2.424,0" transform="translate(-250.166 -86.57)" fill="#fff"/>
          <path id="Path_600" data-name="Path 600" d="M236.655,99.956c0,.609.018,1.146-.016,1.68-.006.1-.21.262-.331.271-.426.03-.857,0-1.286,0-3.351,0-6.7,0-10.054.019a4.941,4.941,0,0,1-2.753-.744,3.8,3.8,0,0,1-.415-5.755,5.254,5.254,0,0,1,3.257-1.258c.3-.009.522-.042.548-.418.006-.093.2-.241.316-.246.584-.025,1.17-.011,1.836-.011v6.429h2.231c-.95-2.231-.686-4.16,1.421-5.559a5.053,5.053,0,0,1,4.985.366l-.592,1.8c-.543-.159-1.087-.367-1.651-.474a1.994,1.994,0,0,0-2.467,2.544,3.332,3.332,0,0,0,.146.45c.313.84.385.9,1.264.905,1.156.008,2.312,0,3.56,0m-11.063-3.751a9.73,9.73,0,0,0-1.347.172,1.841,1.841,0,0,0-1.355,2.26,2.231,2.231,0,0,0,2.481,1.29.4.4,0,0,0,.212-.3c.015-1.1.01-2.2.01-3.421" transform="translate(-220.671 -90.639)" fill="#fff"/>
          <path id="Path_603" data-name="Path 603" d="M323.927,105.739c-.05-.721-.1-1.408-.148-2.153,1.1.331,2.143.668,3.187.119.181-.1.287-.333.428-.505l-.063-.14c-.275-.014-.55-.037-.826-.042a4.187,4.187,0,0,1-3.111-1.3,3.732,3.732,0,0,1,.137-5.106,4.844,4.844,0,0,1,3.309-1.352c.761-.024,1.523.01,2.285-.005.285-.005.347.11.348.366.01,2.4.06,4.809.027,7.212a5.469,5.469,0,0,1-.44,1.774,2,2,0,0,1-1.363,1.165,5.869,5.869,0,0,1-3.284.087c-.152-.038-.305-.075-.486-.119m3.493-8.432a10.786,10.786,0,0,0-1.3.138,1.887,1.887,0,0,0-1.456,1.624,1.6,1.6,0,0,0,1.221,1.8,4.42,4.42,0,0,0,1.261.144c.088,0,.261-.186.263-.289.019-1.1.012-2.207.012-3.416" transform="translate(-283.648 -91.728)" fill="#fff"/>
          <path id="Path_609" data-name="Path 609" d="M281.186,88.065a1.024,1.024,0,0,1,1.2-1.067c.708.03,1.31.58,1.193,1.193-.148.775-.346,1.023-1.378.978-.782-.034-1.052-.342-1.01-1.1" transform="translate(-258.112 -86.62)" fill="#fff"/>
          <path id="Path_620" data-name="Path 620" d="M235.047,87.114a.993.993,0,0,1-1.022.981,1.223,1.223,0,0,1-1.307-1.024c-.019-.637.413-1.037,1.13-1.047.855-.011,1.183.287,1.2,1.09" transform="translate(-228.125 -86.018)" fill="#fff"/>
          <path id="Path_623" data-name="Path 623" d="M225.248,87.033c.005-.769.3-1.029,1.145-1.024.774,0,1.094.311,1.088,1.045a1.011,1.011,0,0,1-1.092,1.027,1.089,1.089,0,0,1-1.14-1.048" transform="translate(-223.503 -86.009)" fill="#fff"/>
        </g>
        <g id="Group_151080" data-name="Group 151080" transform="translate(172.953 0.001)">
          <path id="Path_598" data-name="Path 598" d="M460.827,93.513v6.408h2.392a19.432,19.432,0,0,1-.268-1.974,3.28,3.28,0,0,1,2.371-3.4,6.949,6.949,0,0,1,1.807-.352c.693-.062,1.4-.027,2.1-.03.643,0,.666,0,.672.661.014,1.773.008,3.545.007,5.318,0,.443-.043.889-.006,1.329.032.388-.094.482-.472.478-2.319-.023-4.638-.026-6.957-.027-1.572,0-3.145.015-4.717.013a3.931,3.931,0,0,1-3.026-1.262,3.313,3.313,0,0,1-.868-3.016,4,4,0,0,1,4.229-3.474c.336-.011.746.091.7-.488,0-.053.178-.172.276-.175.568-.017,1.136-.008,1.766-.008m7.032,4.61h-.049c0-.506-.005-1.013,0-1.519,0-.229-.058-.37-.321-.345a8.916,8.916,0,0,0-1.133.106,1.923,1.923,0,0,0-1.383,1.879c.15,1.153.731,1.724,1.762,1.729.238,0,.478-.025.714,0,.332.031.414-.135.409-.422-.008-.475,0-.949,0-1.424m-9.069-.029h-.021c0-.488.021-.979-.014-1.465-.01-.129-.183-.344-.295-.353a2.652,2.652,0,0,0-1.8.453,1.706,1.706,0,0,0-.682,1.905,2.291,2.291,0,0,0,2.574,1.306c.091-.01.222-.214.228-.333.026-.5.011-1.009.011-1.513" transform="translate(-453.782 -90.649)" fill="#fff"/>
          <path id="Path_601" data-name="Path 601" d="M498.479,103.426c.344.016.692.031,1.039.05a.556.556,0,0,0,.647-.434,6.367,6.367,0,0,0,.164-1.258q.022-3.275,0-6.551c0-.425.141-.567.559-.509a3.62,3.62,0,0,0,.9.022c.491-.056.61.192.6.608-.011.443-.01.886-.011,1.329,0,1.155.011,2.311,0,3.466,0,.3.065.426.392.415.647-.022,1.3-.006,2.014-.006-.109-.379-.189-.724-.306-1.056a3.873,3.873,0,0,1,4.159-5.019,6.766,6.766,0,0,1,2.6.819l-.613,1.828c-.538-.16-1.069-.364-1.619-.472a2.011,2.011,0,0,0-2.446,2.7c.035.121.077.241.124.358.306.774.385.836,1.217.842,1.064.007,2.128.008,3.191-.006.28,0,.41.067.4.368a7.362,7.362,0,0,0,.014,1.138c.045.4-.116.483-.481.481-2.366-.019-4.732-.02-7.1-.025-.365,0-.73.016-1.1.007-.284-.006-.458.069-.443.4a2.974,2.974,0,0,1-.061.469c-.252,2.155-2.164,2.39-3.554,2.062a.45.45,0,0,1-.269-.324c-.028-.548-.013-1.1-.013-1.7" transform="translate(-481.436 -91.24)" fill="#fff"/>
          <path id="Path_612" data-name="Path 612" d="M486.186,89.18a1.214,1.214,0,0,1-1.245-1.05A1.193,1.193,0,0,1,486.16,87a1.1,1.1,0,0,1,1.228,1.128c-.016.816-.295,1.061-1.2,1.056" transform="translate(-473.061 -86.618)" fill="#fff"/>
          <path id="Path_614" data-name="Path 614" d="M521.475,88.536c-.77,0-1.191-.358-1.2-1.021a1.13,1.13,0,0,1,1.174-1.105,1.169,1.169,0,0,1,1.245,1.1c.013.719-.347,1.019-1.219,1.021" transform="translate(-494.925 -86.255)" fill="#fff"/>
          <path id="Path_621" data-name="Path 621" d="M468.329,87.139c.014.561-.4.879-1.164.9a.994.994,0,0,1-1.077-.911c-.017-.793.285-1.114,1.06-1.125.9-.014,1.159.231,1.182,1.135" transform="translate(-461.395 -86.003)" fill="#fff"/>
          <path id="Path_624" data-name="Path 624" d="M459.389,86.009c.82.014,1.131.3,1.136,1.053a.967.967,0,0,1-1.058.961c-.872-.022-1.218-.34-1.2-1.1.019-.628.382-.925,1.118-.912" transform="translate(-456.559 -86.007)" fill="#fff"/>
        </g>
        <g id="Group_151083" data-name="Group 151083" transform="translate(26.314)">
          <path id="Path_595" data-name="Path 595" d="M88.252,95.813h2.661c-.1-.5-.236-1.013-.3-1.531a3.629,3.629,0,0,1,3.357-4.114,22.6,22.6,0,0,1,3.184-.077c.122,0,.3.186.349.321a2.153,2.153,0,0,1,.044.658c0,2.057-.017,4.114.016,6.171.008.482-.143.581-.584.58q-10.765-.017-21.53-.009c-.81,0-1.62.025-2.429,0a3.773,3.773,0,0,1-3.807-4.578,4.156,4.156,0,0,1,3.454-3.09,3.834,3.834,0,0,1,.851-.079c.456.031.709-.106.637-.649.608,0,1.188-.012,1.767.013.087,0,.228.175.239.279a9.474,9.474,0,0,1,.024.993c0,1.6,0,3.2-.006,4.795,0,.222.022.367.3.362.617-.01,1.234,0,1.888,0v-8.99c.667,0,1.31-.013,1.95.018.069,0,.178.26.181.4.017,1.06.011,2.12.014,3.18,0,.091.018.183.029.3,1.028,0,2.039-.009,3.05,0a11.4,11.4,0,0,1,1.99.083,2.966,2.966,0,0,1,2.672,3.167c.024.58,0,1.161,0,1.792m-7.721.035c1.817,0,3.6,0,5.388-.014.08,0,.219-.2.228-.319.028-.393.014-.789.009-1.183a1.285,1.285,0,0,0-1.3-1.446c-1.432-.064-2.87-.018-4.328-.018Zm14.943-3.6a2.193,2.193,0,0,0-2.569.886,1.873,1.873,0,0,0,.23,2.24c.644.861,1.536.309,2.34.484Zm-21.328-.027a2.746,2.746,0,0,0-2.167.436,1.664,1.664,0,0,0-.544,2.112,2.486,2.486,0,0,0,2.514,1.05.4.4,0,0,0,.189-.314c.014-1.075.008-2.15.008-3.284" transform="translate(-69.149 -86.538)" fill="#fff"/>
          <path id="Path_596" data-name="Path 596" d="M154.673,92.469l-.969-1.763c1.529-.921,3.137-1.43,4.792-.638,2.412,1.154,2.727,3.28,2.256,5.694h2.388V94.726a4.069,4.069,0,0,1,5-3.884,4.278,4.278,0,0,1,3.31,4.87,4.04,4.04,0,0,1-3.806,3.321,3.5,3.5,0,0,1-2.709-.628,3.144,3.144,0,0,0-2.472-.647q-6.266-.005-12.532,0c-.305,0-.411-.058-.411-.387q.014-5.058-.01-10.115c0-.39.126-.5.493-.478.4.027.794.023,1.191.015.307-.006.4.11.4.425-.011,2.707.006,5.414-.011,8.12,0,.4.126.471.487.468q3.074-.025,6.147,0c.328,0,.421-.106.489-.406a4.248,4.248,0,0,0-.007-2.2,2.129,2.129,0,0,0-2.387-1.356,4.279,4.279,0,0,0-.825.217,8.783,8.783,0,0,0-.812.408m10.57,2.491a2.147,2.147,0,0,0,1.87,2.149,2.288,2.288,0,0,0,2.23-2.161,2.08,2.08,0,0,0-2.064-2.1,2.025,2.025,0,0,0-2.035,2.111" transform="translate(-118.874 -86.483)" fill="#fff"/>
          <path id="Path_608" data-name="Path 608" d="M133.945,89.183a1.183,1.183,0,0,1-1.254-1.088,1.148,1.148,0,0,1,1.2-1.095,1.213,1.213,0,0,1,1.3,1.107c-.009.754-.379,1.073-1.248,1.076" transform="translate(-108.466 -86.619)" fill="#fff"/>
          <path id="Path_611" data-name="Path 611" d="M105.393,89.716c-.013.749-.395,1.074-1.23,1.051a1.226,1.226,0,0,1-1.168-1.1,1.24,1.24,0,0,1,1.283-1.137c.794.018,1.129.376,1.116,1.19" transform="translate(-90.091 -87.563)" fill="#fff"/>
          <path id="Path_619" data-name="Path 619" d="M73.762,87.027c0-.775.277-1.026,1.131-1.026.792,0,1.152.329,1.149,1.05a1.19,1.19,0,0,1-1.133,1.04,1.1,1.1,0,0,1-1.146-1.064" transform="translate(-72.003 -86.001)" fill="#fff"/>
          <path id="Path_625" data-name="Path 625" d="M83.646,87.154a.879.879,0,0,1-1.007.893c-.757-.068-1.247-.262-1.219-.818.044-.883.263-1.184,1.031-1.191.917-.008,1.194.25,1.195,1.116" transform="translate(-76.741 -86.024)" fill="#fff"/>
        </g>
        <g id="Group_151084" data-name="Group 151084" transform="translate(0 0)">
          <path id="Path_602" data-name="Path 602" d="M34.36,100.585c0,.608-.009,1.128,0,1.649.008.321-.2.3-.416.3l-4.146,0c-1.35,0-2.7,0-4.05-.013-.367,0-.529.1-.562.5a4.424,4.424,0,0,1-.318,1.375,2.525,2.525,0,0,1-2.693,1.178c-.813-.078-.811-.11-.834-.937-.01-.363-.013-.727-.017-1.09,0-.013.016-.026.027-.041.342,0,.685-.018,1.026,0a.61.61,0,0,0,.709-.488,4.693,4.693,0,0,0,.146-1.073c.006-2.232,0-4.464-.023-6.7,0-.4.1-.542.5-.5a4.386,4.386,0,0,0,.952.011c.46-.048.577.17.573.577q-.019,1.971-.008,3.942c0,.419-.1.976.123,1.214.2.209.776.065,1.187.07.361,0,.723,0,1.122,0-.157-.534-.335-1.023-.446-1.526a3.854,3.854,0,0,1,4.4-4.512,17.878,17.878,0,0,1,2.543.693c-.263.726-.482,1.328-.691,1.908-.576-.161-1.131-.351-1.7-.467a1.991,1.991,0,0,0-2.4,2.529,2.474,2.474,0,0,0,.11.362c.345.936.448,1.012,1.44,1.021.969.008,1.938.006,2.907.008h.54" transform="translate(-13.244 -91.257)" fill="#fff"/>
          <path id="Path_604" data-name="Path 604" d="M7.161,93.539c0,.587,0,1.091,0,1.595.012,2.168.029,4.336.026,6.5,0,.106-.182.3-.278.3-1.238,0-2.481.033-3.711-.08a3.465,3.465,0,0,1-3-2.784c-.436-2.973,1.165-4.483,3.933-4.867A2.058,2.058,0,0,0,4.6,94.18c.136-.056.325-.2.331-.315.013-.26.114-.331.347-.329.6.005,1.2,0,1.88,0M4.954,96.266a7.255,7.255,0,0,0-1.283.124A1.768,1.768,0,0,0,2.3,97.7a1.632,1.632,0,0,0,.546,1.755,2.307,2.307,0,0,0,1.823.5.406.406,0,0,0,.271-.281c.019-1.1.012-2.207.012-3.408" transform="translate(-0.128 -90.664)" fill="#fff"/>
          <path id="Path_607" data-name="Path 607" d="M26.775,89.176A1.19,1.19,0,0,1,25.5,88.086,1.216,1.216,0,0,1,26.768,87c.721,0,1.337.506,1.265,1.119-.089.765-.313,1.069-1.258,1.061" transform="translate(-15.826 -86.617)" fill="#fff"/>
          <path id="Path_613" data-name="Path 613" d="M44.456,88.534c-.825.006-1.211-.328-1.209-1.047a1.1,1.1,0,0,1,1.14-1.079,1.193,1.193,0,0,1,1.275,1.083c.02.721-.344,1.037-1.205,1.043" transform="translate(-26.808 -86.253)" fill="#fff"/>
          <path id="Path_617" data-name="Path 617" d="M13.257,86c.805,0,1.16.385,1.144,1.23-.007.382-.6.847-1.09.857a1.209,1.209,0,0,1-1.264-1.127c.006-.627.432-.963,1.21-.96" transform="translate(-7.503 -86.002)" fill="#fff"/>
          <path id="Path_626" data-name="Path 626" d="M6.708,87.05A1.037,1.037,0,0,1,5.6,88.075a1.081,1.081,0,0,1-1.162-.995c0-.724.357-1.047,1.151-1.037.7.009,1.124.388,1.124,1.007" transform="translate(-2.793 -86.027)" fill="#fff"/>
        </g>
      </g>
    </g>
    <g id="Mask_Group_2" data-name="Mask Group 2" transform="translate(72.223 -175.18)" clip-path="url(#clip-path)">
      <g id="Group_151079" data-name="Group 151079" transform="translate(1.233 -1.491)">
        <path id="Path_627" data-name="Path 627" d="M689.656,121.268c-.4,3.117-.792,6.164-1.208,9.408l-6.054-1.118c-.349,1.592-.644,2.987-.965,4.376-.176.766-.155,1.28.818,1.55a28.377,28.377,0,0,1,3.819,1.484c.253.112.583.655.5.824-1.16,2.464-2.382,4.9-3.657,7.474-1.265-.584-2.491-1.159-3.724-1.717-1.432-.65-1.448-.652-2.2.746-.485.9-1.415,1.938-1.245,2.72.161.745,1.486,1.245,2.306,1.843.777.566,1.563,1.119,2.408,1.724-1.787,2.131-3.519,4.2-5.25,6.263-.4.482-.8.343-1.21.008-.986-.8-2-1.562-2.962-2.386a.966.966,0,0,0-1.542.109c-.9.943-1.851,1.834-2.7,2.817a1.229,1.229,0,0,0-.04,1.116,38.327,38.327,0,0,0,2.148,3.486c.476.681.558,1.066-.27,1.544-1.878,1.082-3.718,2.233-5.526,3.426-.859.567-1.372.372-1.862-.436-.688-1.134-1.419-2.241-2.212-3.484-1.655.852-3.3,1.657-4.88,2.56-.2.115-.234.775-.134,1.122.441,1.524.96,3.025,1.466,4.584l-8.831,2.663c-.3-1.338-.572-2.622-.895-3.893-.306-1.206-.492-1.322-1.667-1.084-1.21.245-2.406.555-3.615.8a.849.849,0,0,0-.79,1.036c.1,1.428.189,2.858.218,4.289,0,.253-.3.731-.468.734-2.8.046-5.6.033-8.487.033,0-1.558-.062-3.014.025-4.461.047-.8-.124-1.165-.969-1.22-1.633-.108-3.26-.329-4.893-.4a1.268,1.268,0,0,0-.977.684,34.469,34.469,0,0,0-.911,3.677c-.138.68-.361,1-1.135.8a43.763,43.763,0,0,1-7.92-2.685c.507-1.468.967-2.846,1.463-4.212.2-.542.108-.822-.473-1.054-1.89-.752-3.763-1.549-5.622-2.373a.8.8,0,0,0-1.167.357c-.711,1.087-1.451,2.156-2.163,3.243-.337.515-.714.809-1.308.38q-3.2-2.316-6.4-4.643a1.367,1.367,0,0,1-.262-.337l3.214-4.118c-1.411-1.184-2.7-2.337-4.08-3.361a1.571,1.571,0,0,0-1.408.083,27.482,27.482,0,0,0-2.609,2.019,1.173,1.173,0,0,1-1.943-.218c-1.492-2-3.007-3.983-4.588-6.07l4.3-3.408c-.609-.94-1.222-1.953-1.9-2.922-1.34-1.916-1.355-1.907-3.62-1.18-.794.255-1.6.486-2.375.78a.672.672,0,0,1-1.013-.44c-.849-2.167-1.69-4.339-2.572-6.493-.256-.627-.147-1.022.485-1.259,1.185-.443,2.352-.947,3.564-1.293.639-.181.82-.4.66-1.026-.471-1.858-.9-3.726-1.366-5.658l-5.631,1.726c-.292-3.264-.57-6.367-.858-9.583h12.6c.114.739.265,1.545.359,2.357a48.527,48.527,0,0,0,7.081,19.88c5.952,9.709,14.531,15.987,25.745,18.307,7.607,1.574,15.333,1.721,22.806-.689,12.233-3.947,21.707-11.335,27.212-23.162a39.4,39.4,0,0,0,3.675-15.744c.021-.836.256-1.046,1.089-1.031,3.978.069,7.955.063,11.934.085.192,0,.384.021.656.036" transform="translate(-559.84 -23.934)" fill="#fff"/>
        <path id="Subtraction_2" data-name="Subtraction 2" d="M0,37.753c.974-3.3,1.692-6.709,2.965-9.894C7.434,16.683,15.635,9.328,26.917,5.247a40.477,40.477,0,0,1,9.169-2c.976-.113,1.675-.258,1.807-1.485A2.034,2.034,0,0,1,40.281.022a1.95,1.95,0,0,1,1.748,2.172c-.031.749.231.957.952,1.03,14.082,1.437,24.617,8.4,31.685,20.527A34.953,34.953,0,0,1,79.185,37.1c.082.659-.036.931-.73.917-1.035-.021-2.072.014-3.109.014l-72.316.051H0m52.5-27.54c-.086.327-5.956,10.3-8.882,15.185-1.378,2.3-1.32,2.731.811,4.391A14.531,14.531,0,0,0,57.41,32.667a11.092,11.092,0,0,0,5.973-3.636,1.96,1.96,0,0,0,.466-1.367,4.461,4.461,0,0,0-.752-1.61c-3.052-4.878-6.059-9.787-9.228-14.59a11.3,11.3,0,0,0-3.333-3.247c-5.214-3.269-10.768-4.467-16.827-2.44-3.793,1.269-7.022,3.146-9.084,6.712-1.282,2.218-2.69,4.363-4.011,6.559-1.527,2.538-3.07,5.067-4.509,7.655-.812,1.46-.668,1.79.568,2.983.119.116.246.225.371.335C20.2,32.805,23.972,33.469,28,33.062a12.829,12.829,0,0,0,8.372-4.257,1.238,1.238,0,0,0,.158-1.753c-2.942-4.636-5.829-9.306-8.722-13.973-.483-.781-.905-1.6-1.434-2.537ZM39.849,3.019c.538.006,1.049.032,1-.734-.041-.637-.235-1.045-.982-1.07s-.873.393-.9.984c-.028.65.878.82.878.82" transform="translate(33.497 54.399)" fill="#fff"/>
        <path id="Path_629" data-name="Path 629" d="M582.247,77.628c0-.959.024-1.919-.03-2.875-.006-.121-.412-.232-.642-.326a23.385,23.385,0,0,1-3.191-1.327,3.852,3.852,0,0,1-1.887-3.528q.043-33.932.063-67.865c0-.54.063-1.08.1-1.621l.39-.087a3.693,3.693,0,0,1,.488,1.225q.013,24.936-.028,49.873c-.006,5.43-.015,10.861.009,16.291,0,.314.286.626.439.938.149-.286.429-.573.429-.86q.048-15.987.048-31.975.007-15.093,0-30.184c0-1.365-.039-2.73-.011-4.094a2.7,2.7,0,0,1,.352-.868c.168.29.481.579.481.869,0,5.262-.061,10.524-.061,15.786q0,23.731.028,47.463c0,1.265-.067,2.531-.057,3.8,0,.538-.01,1.157.874,1.359a7.563,7.563,0,0,0,.1-.859q-.024-33.434-.055-66.868A3.9,3.9,0,0,1,580.157.8c.067-.228.337-.4.516-.591.2.195.5.36.562.593a4.368,4.368,0,0,1,.078,1.189q0,32.083-.011,64.166,0,2,.047,4a2.781,2.781,0,0,0,.206.965.6.6,0,0,0,.469.233c.087,0,.24-.215.262-.35a5.667,5.667,0,0,0,.037-.9q.017-31.086.03-62.172c0-2.3-.025-4.6,0-6.9a2.669,2.669,0,0,1,.376-.9c.175.3.5.6.5.894.022,4.794,0,9.588,0,14.382q-.029,27.167-.051,54.331a4.877,4.877,0,0,0,.038,1.095c.047.2.3.361.462.539.178-.165.416-.3.518-.5a1.6,1.6,0,0,0,.065-.687q-.05-20.737-.106-41.472-.031-13.193-.037-26.386c0-.713.068-1.428.109-2.261,1.083.374,1.056,1.136,1.054,1.844,0,2.5-.053,5-.053,7.495q0,28.287.006,56.573v3.7c.876-.073,1.079-.609,1.111-1.233.046-.931.052-1.864.052-2.8q0-30.732-.009-61.463c0-1-.083-2-.067-3a2.785,2.785,0,0,1,.337-.878c.17.289.49.578.488.866-.022,5.8-.118,11.591-.126,17.386q-.032,22.389,0,44.778c0,1.365.027,2.733.13,4.092.02.267.445.5.684.753.148-.271.428-.542.428-.814q.017-28.287-.014-56.573c0-3-.087-6-.087-8.995a6.814,6.814,0,0,1,.355-1.531,5.583,5.583,0,0,1,.408,1.45q.025,30.786.01,61.572c0,1.862.048,3.725.045,5.587,0,3.062-1.615,5.012-4.638,5.469-.843.128-1.076.43-1.005,1.2.058.628.02,1.264.039,1.9,0,.084.092.166.308.526.746-2.548,3.228-2.358,4.876-3.463.813,1.145.239,3.843-1.25,4.791a10.722,10.722,0,0,1-3.22,1.216c-.6.145-.776.3-.748.882.042.852.01,1.708.01,2.562l.255.161c.787-.648,1.536-1.351,2.373-1.927s1.768-1.029,2.654-1.533c.709,1.805-.333,5.351-2.759,5.9a11.588,11.588,0,0,1-1.663.351c-.812.063-.992.466-.9,1.2a17,17,0,0,1,.013,1.911c.534-.331.993-.454,1.156-.743.952-1.683,2.719-1.877,4.279-2.5.481,2.462-1.137,5.564-3.349,5.784a29.213,29.213,0,0,1-5.083.034,3.417,3.417,0,0,1-3.016-2.449,16.537,16.537,0,0,1-.8-3.339c1.451.6,3.083.6,4.133,1.952a6.944,6.944,0,0,0,1.336,1.058c.108-.542.219-1.084.32-1.628.18-.964-.329-1.272-1.208-1.384-2.829-.364-3.735-1.221-4.3-4.015-.136-.672-.177-1.363-.262-2.045l.238-.223c1.257.822,2.518,1.64,3.772,2.467.483.319.953.656,1.428.985.123-.585.262-1.167.359-1.755.043-.259-.024-.534,0-.8.058-.576-.142-.806-.764-.872-3.583-.378-5.1-2.187-5-6.111,1.908.96,4.238.952,5.213,3.365l.465-.195" transform="translate(-559.839)" fill="#fff"/>
        <path id="Path_630" data-name="Path 630" d="M712.207.36a3.671,3.671,0,0,1,.224.891c-.042,7.029-.136,14.057-.146,21.085q-.03,21.141.015,42.281a19.275,19.275,0,0,0,.145,2.691c.052.372.407.7.624,1.049a3.8,3.8,0,0,0,.369-1.106q.052-7.947.047-15.891.011-21.39.007-42.781c0-2.264-.072-4.529-.107-6.793a3.294,3.294,0,0,1,.04-.993c.071-.229.34-.4.521-.594.21.2.575.388.6.614a18.067,18.067,0,0,1,.034,2.1q0,31.236,0,62.472c0,1.332-.01,2.665-.064,4a5.05,5.05,0,0,1-3.964,4.789c-2.32.437-1.859.754-1.918,2.5-.009.289.031.579.062,1.1a19.807,19.807,0,0,1,2.512-2.027,19.394,19.394,0,0,1,2.919-1.118c.7,2.8-.684,5.049-3.658,5.793-2.008.5-2.1.63-1.8,2.731.038.265.2.64.4.72s.564-.092.783-.253c1.382-1.011,2.743-2.049,4.169-3.122.657,2.467-.357,5.141-2.182,5.9a7.608,7.608,0,0,1-1.941.44c-.955.125-1.451.529-1.274,1.565a11.687,11.687,0,0,1,.011,1.621c.595-.326,1.17-.451,1.394-.8a4.341,4.341,0,0,1,2.826-1.883,8.507,8.507,0,0,0,1.459-.663c.1,3.207-1.4,6.159-4.866,6.127-.969-.01-1.941.03-2.907-.028a4.057,4.057,0,0,1-3.99-2.926,14.076,14.076,0,0,1-.571-3.028c1.52.816,3.431.7,4.42,2.37.194.327.668.489,1.245.888,0-1.054.042-1.777-.026-2.491a.963.963,0,0,0-.534-.595,3.562,3.562,0,0,0-.978-.178,4.02,4.02,0,0,1-3.815-3.495c-.169-.856-.211-1.736-.311-2.606l.274-.159,4.973,3.358c.262-.252.693-2.545.341-2.949-.168-.193-.519-.235-.793-.328a19.448,19.448,0,0,1-2.535-.871,4.531,4.531,0,0,1-2.077-5.1,21.6,21.6,0,0,1,2.965,1.083,21.405,21.405,0,0,1,2.616,1.975c0-1.109.039-1.9-.026-2.677-.017-.2-.331-.443-.563-.543a7.717,7.717,0,0,0-.976-.2c-3.105-.869-4.21-2.339-4.21-5.649q0-19.892.014-39.782.01-13.994.034-27.987c0-.246.046-.49.071-.736l.366-.071a6.979,6.979,0,0,1,.327,1.457c.033,3.231.027,6.463.026,9.7q0,26.538-.014,53.076V68.4c.9.044.934-.509.949-.985.04-1.331.04-2.664.04-4q.011-28.784.009-57.569c0-1.529-.157-3.056-.16-4.585,0-.33.355-.66.547-.989.209.357.594.713.6,1.07.011,1.763-.125,3.526-.126,5.289q-.014,29.387,0,58.775a32.355,32.355,0,0,0,.126,3.292c.029.286.451.533.693.8.166-.276.477-.551.477-.827q.045-14.942.034-29.883,0-18.292-.008-36.583a11.9,11.9,0,0,1-.07-1.29c.024-.215.291-.4.448-.605.139.187.391.372.4.562.015.73-.078,1.463-.078,2.195q-.009,22.839-.008,45.679,0,10.645-.01,21.29a1.568,1.568,0,0,0,.017.593,4.557,4.557,0,0,0,.488.721c.192-.251.531-.492.551-.757.084-1.127.1-2.262.095-3.394q0-25.485-.024-50.971c-.007-4.828-.106-9.657-.16-14.484a2.5,2.5,0,0,1,.041-.891c.093-.241.369-.41.564-.611.195.216.555.429.559.648.021,1.4-.063,2.8-.063,4.2q-.011,21.886-.008,43.771c0,6.728-.035,13.457-.054,20.185a14.076,14.076,0,0,0,.025,1.7c.026.229.29.429.447.642.217-.2.586-.373.622-.6a16.313,16.313,0,0,0,.2-2.486q.035-11.194.036-22.39.006-20.091,0-40.182c0-1.757,0-3.514,0-5.368.518-.148.779.014.778.785q-.076,33.636-.093,67.272c0,.324.33.648.507.973.249-.375.715-.749.716-1.123.005-11.293-.045-22.585-.065-33.877q-.03-16.291-.022-32.585V.44l.413-.08" transform="translate(-584.627 -0.016)" fill="#fff"/>
        <path id="Path_631" data-name="Path 631" d="M599.233,121.871h1.139c5.547,0,11.095.024,16.641-.022,1.03-.009,1.33.321,1.3,1.315-.063,2.157-.019,4.318-.019,6.648-1.546,0-3.005.029-4.46-.036-.186-.008-.482-.49-.5-.771-.157-1.9-.137-1.918-2.088-1.936-1.8-.015-3.608.016-5.413.014-.59,0-.852.187-.731.839a32.958,32.958,0,0,0,7.206,15.371c.21.25.443.481.884.957v-7.2c-.709-.035-1.5-.13-2.284-.1-.579.025-.809-.187-.818-.718-.014-.8-.06-1.6,0-2.394a.831.831,0,0,1,.578-.568c2.3-.042,4.608-.051,6.911,0a1.016,1.016,0,0,1,.676.714c.088.958.049,1.928.049,2.894q0,7.442-.007,14.885v1.6a14.588,14.588,0,0,1-1.694-.425,16.329,16.329,0,0,1-6.3-4.653A44.865,44.865,0,0,1,599.572,125.8c-.213-1.238-.221-2.511-.339-3.931" transform="translate(-564.331 -24.073)" fill="#fff"/>
        <path id="Path_632" data-name="Path 632" d="M630.828,138.744q0-8.391-.008-16.781c0-.5.129-.717.677-.716,3.307,0,6.615-.019,9.923-.047.549,0,.78.187.766.762-.034,1.364-.041,2.731-.01,4.1.014.591-.223.737-.77.728-1.437-.026-2.874.012-4.311-.007-.629-.009-.905.213-.9.872q.073,12.187.1,24.374c0,.822.274,1.1,1.066,1.164a34.22,34.22,0,0,1,3.666.523,1.051,1.051,0,0,1,.689.706c.079,1.059.04,2.129.033,3.194,0,.608-.254.847-.932.826a41.34,41.34,0,0,1-9.681-1.98c-.224-.063-.448-.608-.449-.93" transform="translate(-570.536 -23.945)" fill="#fff"/>
        <path id="Path_633" data-name="Path 633" d="M658.769,152.7c1.317-.36,2.47-.663,3.613-.994.725-.209,1.055-.076.992.782-.079,1.06.017,2.134-.057,3.195-.022.307-.321.8-.571.854-2.993.665-6,1.266-9,1.879a2.49,2.49,0,0,1-.437,0c-.016-.35-.043-.676-.043-1,0-11.527.012-23.054-.028-34.582,0-1.013.264-1.322,1.268-1.3,2.975.054,5.95.03,8.925.016.563,0,.872.121.859.771-.024,1.2-.007,2.4.04,3.6.026.664-.176.952-.894.958-1.3.01-2.6.14-3.906.167-.652.013-.841.246-.837.9.045,7.828.059,15.656.081,23.483,0,.387,0,.774,0,1.279" transform="translate(-575 -24.008)" fill="#fff"/>
        <path id="Path_634" data-name="Path 634" d="M680.482,126.661v9.716l5.758-.3c-.769,3.782-8.662,13.335-13.164,15.939,0-.717-.016-1.319,0-1.919.037-1.13.185-2.264.114-3.385a1.891,1.891,0,0,1,1.026-2.05,1.651,1.651,0,0,0,.9-1.717q-.023-7.89.01-15.781c0-.591-.243-.776-.762-.778H673.3v-5.07c1.427,0,2.85,0,4.273,0,1.47,0,2.94.043,4.409.015.673-.013.865.251.839.887-.051,1.195-.015,2.394-.074,3.588a.806.806,0,0,1-.485.567,15.23,15.23,0,0,1-1.777.288" transform="translate(-578.918 -23.967)" fill="#fff"/>
        <path id="Path_636" data-name="Path 636" d="M627.147,162.064c-2.069-.538-2.341-.872-2.346-2.585,0-1.05,0-2.1,0-3.178,1.57.254,2.33,1.085,2.344,2.4.011,1.079,0,2.159,0,3.364" transform="translate(-569.082 -31.608)" fill="#fff"/>
        <path id="Path_637" data-name="Path 637" d="M646.764,164.2c0-.364-.008-.729,0-1.094.033-1.277.6-1.678,1.767-1.2a.812.812,0,0,1,.391.594c.071,1.058.1,2.119.111,3.179s-.864.649-1.4.771c-.6.137-.869-.185-.88-.755-.009-.5,0-.994,0-1.492Z" transform="translate(-573.72 -31.949)" fill="#fff"/>
        <path id="Path_642" data-name="Path 642" d="M573.459,167.174c1.354-1.047,2.639-2.041,3.925-3.037.474-.368.936-.75,1.417-1.108.394-.291.812-.729,1.245-.055.336.523.817,1.053.04,1.622-.589.43-1.156.887-1.838,1.413.4.282.723.542,1.074.753a5.416,5.416,0,0,1,1.685,8.1c-.214.3-.542.778-.437.986a5.654,5.654,0,0,0,1.177,1.451c.054.052.55-.238.745-.456a3.645,3.645,0,0,1,6.3,1.168,3.235,3.235,0,0,1-1.306,3.926,3.71,3.71,0,0,1-4.463-.191c-1.754-1.872-3.492-3.767-5.108-5.755-3.55-4.369-7.019-8.8-10.521-13.211-.061-.079-.117-.162-.173-.244-1.336-1.935-1.114-2.73,1.184-3.432,2.173-.664,4.348-.8,6.185.951a3.987,3.987,0,0,1,.522.6c1.062,1.523.964,2.027-.587,3.05-.527.349-1.053.706-1.6,1.019-.731.417-.819.892-.236,1.506.227.238.42.508.775.945m5.351,6.906c1.379-1.667,1.549-2.827.886-4.084a3.286,3.286,0,0,0-3.451-1.652,1.42,1.42,0,0,0-.9.49c-.1.143.119.6.3.833.876,1.168,1.8,2.3,2.679,3.466a6.3,6.3,0,0,1,.489.948m-8.095-13.523c-.249.1-.83.179-1.089.507-.145.182.23.8.412,1.2a1.85,1.85,0,0,0,.464.64c.207.17.6.42.719.343.637-.428,1.634-.886,1.716-1.448.123-.85-.953-1-1.684-1.194a4.366,4.366,0,0,0-.537-.043M585.5,180.324c.776-.006,1.25-.473,1.254-1.412a1.073,1.073,0,0,0-1.231-1.221c-.951.006-1.623.585-1.575,1.42s.535,1.247,1.552,1.212" transform="translate(-557.844 -31.342)" fill="#fff"/>
        <path id="Path_643" data-name="Path 643" d="M599.847,182.519l-4.278,6.209c2.761,1.566,5.33,3.023,7.893,4.475a3.077,3.077,0,0,0-1.208-4.5c-.6-.277-1.264-.429-1.879-.683-.714-.294-.781-.834-.133-1.253a2.01,2.01,0,0,1,1.03-.28,4.4,4.4,0,0,1,4.526,4.372,27.763,27.763,0,0,1-.156,2.786c-.043.695,1.582,2,2.221,1.726.21-.09.351-.443.438-.7a3.341,3.341,0,0,1,2.635-2.451,3.425,3.425,0,0,1,3.7,1.334,3.836,3.836,0,0,1-.059,4.23,3.641,3.641,0,0,1-3.975,1.12,91.547,91.547,0,0,1-15.21-7.776c-.9-.558-2.162-1.121-2.41-1.937-.2-.648.874-1.705,1.434-2.546.923-1.386,1.843-2.776,2.848-4.1.891-1.176,1.366-1.155,2.578-.022m13.391,13.1a1.607,1.607,0,0,0-1.59-1.46,1.383,1.383,0,0,0-1.355,1.416,1.52,1.52,0,0,0,1.44,1.48,1.6,1.6,0,0,0,1.505-1.436" transform="translate(-563.093 -35.89)" fill="#fff"/>
        <path id="Path_644" data-name="Path 644" d="M647.567,196.64c.23-.032.586-.087.943-.13.632-.077.891.174.9.839.022,1.9.123,3.792.153,5.687.011.759.257,1.1,1.072.982.72-.1,1.457-.107,2.336-.165-.083-1.188-.168-2.3-.237-3.414-.105-1.7-.1-1.7,1.781-1.623.143,1.261.343,2.537.414,3.82.054.977.574,1.034,1.332.923.725-.107,1.428-.128,1.24-1.207s-.282-2.174-.4-3.264c-.086-.778.3-1.135.994-.778,1.005.522,1.686.141,2.517-.436,3.1-2.155,7.151-.473,8.15,3.329.152.575.248,1.164.394,1.866a16.182,16.182,0,0,1-1.615.446c-6.278,1.066-12.531,2.319-18.923,2.55-.559.02-1.042.03-1.044-.692-.008-2.886,0-5.772,0-8.734m18.975,4.938a3.217,3.217,0,0,0-3.89-2.356,2.991,2.991,0,0,0-2.2,3.519l6.086-1.163" transform="translate(-573.88 -38.82)" fill="#fff"/>
        <path id="Path_645" data-name="Path 645" d="M697.238,175.438l1.574-1.185c.775.868,1.535,1.695,2.265,2.546.868,1.011,1.69,2.062,2.583,3.048.16.176.736.272.844.154,1.975-2.153,3.907-4.344,5.844-6.524a3.122,3.122,0,0,0-5.239,1.121c-.141.321-.3.766-.565.869a1.654,1.654,0,0,1-1.227-.048c-.2-.1-.265-.647-.234-.978.221-2.439,3.089-4.307,5.789-3.751a10.7,10.7,0,0,1,2.076.707,1.018,1.018,0,0,0,1.4-.3c1.529-1.985,1.463-1.434-.27-2.8-.6-.474-1.22-.927-1.832-1.387-.481-.363-.62-.8-.194-1.273.364-.4.684-.908,1.4-.37,1.38,1.046,2.8,2.043,4.247,2.993.72.473.732.893.22,1.508-2.451,2.942-4.864,5.914-7.337,8.838-1.2,1.424-2.488,2.784-3.787,4.122-.219.225-.918.384-1.034.255-2.183-2.46-4.313-4.968-6.519-7.542" transform="translate(-583.693 -32.604)" fill="#fff"/>
        <path id="Path_646" data-name="Path 646" d="M718.454,154.7a9.3,9.3,0,0,1,.532-1.755c.782-1.562,1.442-1.741,2.983-.972.626.313,1.252.627,1.888.916.544.248.909.111,1.2-.469.7-1.415.727-1.4-.781-1.925a3.442,3.442,0,0,1-2.35-4.251,3.534,3.534,0,0,1,4.556-2.444,3.381,3.381,0,0,1,2.378,4.214c-.985,3.944-2.968,7.459-4.844,11.016-.953,1.805-1.248,1.844-2.913.635a6.169,6.169,0,0,1-2.645-4.965m2.329-.538a3.206,3.206,0,0,0,.737,3.057,1.079,1.079,0,0,0,.8.206c.422-.688,1.11-1.468,1.019-2.126-.062-.457-1.217-.78-1.9-1.127-.158-.08-.393-.011-.649-.011m4.729-5.632a1.465,1.465,0,0,0,1.434-1.368,1.52,1.52,0,0,0-1.594-1.428,1.427,1.427,0,0,0-1.465,1.32,1.738,1.738,0,0,0,1.626,1.476" transform="translate(-587.885 -28.378)" fill="#fff"/>
        <path id="Path_647" data-name="Path 647" d="M635,203.877c0-.321,0-.644,0-.967a3.243,3.243,0,0,1,1.967-3.312,4.289,4.289,0,0,1,4.2.4,1.287,1.287,0,0,1,.221,1.188c-.1.256-.66.459-1.018.461a5.406,5.406,0,0,1-1.233-.374,1.267,1.267,0,0,0-1.759.955,1.505,1.505,0,0,0,1.082,1.938,20.783,20.783,0,0,0,2.481.323c.7.053.8.412.731,1.009-.068.569-.187.944-.9.867-3.553-.391-7.11-.732-10.662-1.134-1.557-.177-3.109-.428-4.651-.712-.292-.054-.738-.4-.755-.642a5.656,5.656,0,0,1,4.786-5.66.683.683,0,0,1,.2-.018,10.761,10.761,0,0,1,2.61.579c1.082.533.211,1.539.281,2.331a1.914,1.914,0,0,1-.027.4c-.267,2.156-.011,2.413,2.451,2.37m-7.933-1.191a17.757,17.757,0,0,0,2.509.419c.22.008.621-.541.656-.864a8.667,8.667,0,0,0-.144-1.883.846.846,0,0,0-.375-.01,3.655,3.655,0,0,0-2.646,2.339" transform="translate(-569.36 -39.156)" fill="#fff"/>
        <path id="Path_648" data-name="Path 648" d="M566.669,147.722c-.16-.286-.318-1-.685-1.128a2.589,2.589,0,0,0-1.87.11c-.307.159-.425.973-.372,1.464a8.429,8.429,0,0,0,.613,2.091c.17.435.413.852-.213,1.036-.561.165-1.22.643-1.689-.153a5.073,5.073,0,0,1-.432-1.112c-.627-2.066-1.264-4.13-1.848-6.208a2.307,2.307,0,0,0-1.891-1.915,9.5,9.5,0,0,1-1.773-.671c-.59-.243-.964-.607-.661-1.31.3-.686.76-1,1.506-.692a8.136,8.136,0,0,0,5.09.551,21.681,21.681,0,0,0,2.453-.84c.376-.139.764-.612,1.083.022.284.563.644,1.248-.132,1.661-.99.528-2.062.9-3.087,1.371-.352.161-.97.444-.948.6a6.989,6.989,0,0,0,.627,1.942c.037.082.613-.019.907-.126,2.855-1.032,5.211.582,5.233,3.632,0,.577.185,1.378-.859,1.329-.885-.043-1.415-.384-1.051-1.654" transform="translate(-555.739 -27.391)" fill="#fff"/>
        <path id="Path_649" data-name="Path 649" d="M724.836,137.452c.382-1.462.714-1.757,1.967-1.716a11.005,11.005,0,0,1,2.479.27c.886.238,1.278-.067,1.41-.871.084-.512.1-1.035.152-1.57-.806-.084-1.5-.106-2.179-.236a3.552,3.552,0,0,1-2.072-5.262,1.2,1.2,0,0,1,1.64-.5c.727.355.382.863.2,1.357-.493,1.339-.309,1.98.65,2.315a1.464,1.464,0,0,0,1.972-.965,8.688,8.688,0,0,0,.311-1.661c.146-1.506.144-1.517,1.9-1.255-.111,1.793-.209,3.606-.343,5.417a21.075,21.075,0,0,1-.3,2.376c-.242,1.276-.215,2.411,1.051,3.211a4.384,4.384,0,0,1,.929,1.038.916.916,0,0,1-.11,1.4.9.9,0,0,1-1.4.039c-.246-.224-.509-.433-.745-.667a7.89,7.89,0,0,0-5.981-2.573,12.423,12.423,0,0,1-1.544-.151" transform="translate(-589.146 -25.136)" fill="#fff"/>
        <path id="Path_650" data-name="Path 650" d="M680.168,200.355c-.668.063-1.151.11-1.635.153-2.573.232-4.315-1.371-4.1-3.775a3.3,3.3,0,0,1,2.638-3.122,3.508,3.508,0,0,1,4.146,1.367c1.563,2.455,1.292,5.067.456,7.674a1.128,1.128,0,0,1-.857.5c-1,.068-1.383-.507-1.06-1.442.136-.391.244-.791.416-1.354m-1.856-1.926c1.06-.012,1.636-.4,1.6-1.081A2.337,2.337,0,0,0,678.1,195.6a1.474,1.474,0,0,0-1.411,1.5c.034.895.581,1.345,1.623,1.333" transform="translate(-579.184 -38.215)" fill="#fff"/>
        <path id="Path_651" data-name="Path 651" d="M687.25,190.145c.014-2.485,1.356-3.783,3.867-3.739a3.659,3.659,0,0,1,3.691,3.979c-.041,2.1-1.585,3.435-3.957,3.422-2.354-.014-3.613-1.294-3.6-3.662m2.2-.019c.014,1.088.433,1.606,1.311,1.619a1.572,1.572,0,0,0,1.723-1.716,1.391,1.391,0,0,0-1.553-1.424c-1.07.006-1.5.443-1.482,1.521" transform="translate(-581.72 -36.827)" fill="#fff"/>
        <path id="Path_652" data-name="Path 652" d="M566.239,131.191a3.525,3.525,0,0,1-3.782,3.678,3.71,3.71,0,0,1-3.713-4.06c.072-2.173,1.542-3.468,3.99-3.294,2.592.185,3.718,1.239,3.505,3.676m-3.6-1.641a1.566,1.566,0,0,0-1.665,1.265,1.7,1.7,0,0,0,1.359,1.816,1.666,1.666,0,0,0,1.841-1.444,1.58,1.58,0,0,0-1.536-1.637" transform="translate(-556.332 -25.189)" fill="#fff"/>
        <path id="Path_653" data-name="Path 653" d="M695.3,183.579c1.506-1.155,1.943-1.178,3.268-.031a9.831,9.831,0,0,1,3.327,7.5c.031.888-.522.924-1.16.967-.678.046-.931-.205-.939-.912a8.406,8.406,0,0,0-3.424-6.671c-.335-.27-.673-.534-1.071-.851" transform="translate(-583.311 -36.095)" fill="#fff"/>
        <path id="Path_654" data-name="Path 654" d="M655.565,196.361c.073,1.1-.464,1.207-1,1.283a.645.645,0,0,1-.789-.831c.108-.412.5-.973.851-1.036.323-.059.749.454.939.584" transform="translate(-575.101 -38.677)" fill="#fff"/>
        <path id="Path_655" data-name="Path 655" d="M570.126,130.7c-.481,0-.744-.223-.75-.637a.707.707,0,0,1,.734-.691.73.73,0,0,1,.778.69c.008.449-.217.637-.762.638" transform="translate(-558.433 -25.56)" fill="#fff"/>
        <path id="Path_656" data-name="Path 656" d="M570.126,132.7c-.481,0-.744-.223-.75-.637a.707.707,0,0,1,.734-.691.73.73,0,0,1,.778.69c.008.449-.217.637-.762.638" transform="translate(-558.433 -25.955)" fill="#fff"/>
        <path id="Path_657" data-name="Path 657" d="M570.066,139.507c-.481,0-.745-.223-.749-.637a.707.707,0,0,1,.733-.691.73.73,0,0,1,.778.69c.008.449-.217.637-.761.638" transform="translate(-558.421 -27.299)" fill="#fff"/>
        <path id="Path_658" data-name="Path 658" d="M573.177,148.813c-.481,0-.744-.223-.749-.637a.706.706,0,0,1,.733-.691.729.729,0,0,1,.778.69c.008.449-.217.637-.761.638" transform="translate(-559.036 -29.138)" fill="#fff"/>
        <path id="Path_659" data-name="Path 659" d="M577.178,158.813c-.481,0-.744-.223-.75-.637a.707.707,0,0,1,.733-.691.729.729,0,0,1,.778.69c.008.449-.217.637-.761.638" transform="translate(-559.826 -31.113)" fill="#fff"/>
        <path id="Path_660" data-name="Path 660" d="M579.177,160.813c-.481,0-.744-.223-.749-.637a.706.706,0,0,1,.733-.691.73.73,0,0,1,.778.69c.008.449-.217.637-.761.638" transform="translate(-560.221 -31.508)" fill="#fff"/>
        <path id="Path_661" data-name="Path 661" d="M585.177,168.813c-.481,0-.744-.223-.749-.637a.706.706,0,0,1,.733-.691.729.729,0,0,1,.777.69c.008.449-.217.637-.761.638" transform="translate(-561.406 -33.089)" fill="#fff"/>
        <path id="Path_662" data-name="Path 662" d="M594.177,178.813c-.481,0-.744-.223-.749-.637a.707.707,0,0,1,.733-.691.73.73,0,0,1,.778.69c.008.449-.217.637-.761.638" transform="translate(-563.185 -35.064)" fill="#fff"/>
        <path id="Path_663" data-name="Path 663" d="M633.587,197.133c-.481-.023-.732-.261-.716-.674a.705.705,0,0,1,.766-.653.731.731,0,0,1,.742.729c-.015.449-.249.625-.793.6" transform="translate(-570.977 -38.684)" fill="#fff"/>
        <path id="Path_664" data-name="Path 664" d="M630.589,196.981c-.48-.023-.732-.261-.716-.674a.706.706,0,0,1,.766-.653.731.731,0,0,1,.742.729c-.014.449-.249.625-.793.6" transform="translate(-570.384 -38.654)" fill="#fff"/>
        <path id="Path_665" data-name="Path 665" d="M689.769,184.906c-.406.258-.749.209-.974-.138a.707.707,0,0,1,.25-.976.73.73,0,0,1,1.026.168c.247.375.157.654-.3.946" transform="translate(-582.005 -36.284)" fill="#fff"/>
        <path id="Path_666" data-name="Path 666" d="M687.394,186.193c-.406.258-.749.209-.974-.138a.707.707,0,0,1,.25-.976.73.73,0,0,1,1.026.168c.247.375.157.654-.3.946" transform="translate(-581.536 -36.538)" fill="#fff"/>
        <path id="Path_667" data-name="Path 667" d="M712.382,163.885c-.354.326-.7.339-.983.038a.706.706,0,0,1,.072-1,.731.731,0,0,1,1.04-.018c.31.326.271.616-.129.985" transform="translate(-586.456 -32.142)" fill="#fff"/>
        <path id="Path_668" data-name="Path 668" d="M711.276,165.575c-.354.326-.7.339-.983.038a.706.706,0,0,1,.072-1,.731.731,0,0,1,1.04-.018c.31.326.271.616-.129.985" transform="translate(-586.237 -32.476)" fill="#fff"/>
        <path id="Path_669" data-name="Path 669" d="M715.277,181.575c-.354.326-.7.339-.983.038a.707.707,0,0,1,.072-1,.731.731,0,0,1,1.04-.018c.31.326.271.616-.129.985" transform="translate(-587.029 -35.637)" fill="#fff"/>
        <path id="Path_670" data-name="Path 670" d="M717.323,154.741c-.3.374-.642.437-.967.181a.706.706,0,0,1-.075-1,.731.731,0,0,1,1.026-.169c.353.277.358.57.015.993" transform="translate(-587.421 -30.347)" fill="#fff"/>
        <path id="Path_671" data-name="Path 671" d="M716.474,156.573c-.3.374-.642.437-.967.181a.706.706,0,0,1-.075-1,.731.731,0,0,1,1.026-.169c.353.277.358.57.015.993" transform="translate(-587.254 -30.709)" fill="#fff"/>
        <path id="Path_672" data-name="Path 672" d="M721.323,145.741c-.3.374-.642.437-.967.181a.706.706,0,0,1-.075-1,.731.731,0,0,1,1.026-.169c.353.277.358.57.015.993" transform="translate(-588.212 -28.569)" fill="#fff"/>
        <path id="Path_673" data-name="Path 673" d="M724.323,130.741c-.3.374-.642.437-.967.181a.706.706,0,0,1-.075-1,.731.731,0,0,1,1.026-.169c.353.277.358.57.015.993" transform="translate(-588.804 -25.605)" fill="#fff"/>
        <g id="Group_151077" data-name="Group 151077" transform="translate(77.894 67.69)">
          <path id="Path_641" data-name="Path 641" d="M660.715,84.454V98.8s-5.938.091-8.605,0" transform="translate(-652.11 -84.454)" fill="#fff"/>
          <path id="Path_674" data-name="Path 674" d="M652.11,84.454V98.8s5.938.091,8.605,0" transform="translate(-643.31 -84.454)" fill="#fff"/>
        </g>
        <g id="Group_151078" data-name="Group 151078" transform="translate(51.057 67.69)">
          <path id="Path_675" data-name="Path 675" d="M660.715,84.454V98.8s-5.938.091-8.605,0" transform="translate(-652.11 -84.454)" fill="#fff"/>
          <path id="Path_676" data-name="Path 676" d="M652.11,84.454V98.8s5.938.091,8.605,0" transform="translate(-643.31 -84.454)" fill="#fff"/>
        </g>
        <path id="Path_677" data-name="Path 677" d="M624.8,162.064c2.069-.538,2.341-.872,2.346-2.585,0-1.05,0-2.1,0-3.178-1.57.254-2.33,1.085-2.344,2.4-.011,1.079,0,2.159,0,3.364" transform="translate(-534.817 -31.134)" fill="#fff"/>
      </g>
    </g>
  </g>
</svg>
