<svg xmlns="http://www.w3.org/2000/svg" width="23" height="23" viewBox="0 0 23 23">
  <g id="vuesax_linear_verify" data-name="vuesax/linear/verify" transform="translate(0.5 0.5)">
    <g id="vuesax_linear_verify-2" data-name="vuesax/linear/verify">
      <g id="verify">
        <path id="Vector" d="M0,2.218,2.209,4.437,6.637,0" transform="translate(7.682 8.782)" fill="none" stroke="#1e9f3b" stroke-linecap="round" stroke-linejoin="round" stroke-width="1.5" stroke-dasharray="0 0"/>
        <path id="Vector-2" data-name="Vector" d="M10.326.406l1.448,1.247a2.032,2.032,0,0,0,1.155.431h1.558a1.776,1.776,0,0,1,1.769,1.769V5.411a2.056,2.056,0,0,0,.431,1.155l1.247,1.448a1.847,1.847,0,0,1,0,2.31l-1.247,1.448a2.032,2.032,0,0,0-.431,1.155v1.558a1.776,1.776,0,0,1-1.769,1.769H12.93a2.056,2.056,0,0,0-1.155.431l-1.448,1.247a1.847,1.847,0,0,1-2.31,0L6.568,16.686a2.032,2.032,0,0,0-1.155-.431H3.827a1.776,1.776,0,0,1-1.769-1.769V12.918a2.086,2.086,0,0,0-.422-1.146L.4,10.315a1.846,1.846,0,0,1,0-2.292L1.636,6.566A2.086,2.086,0,0,0,2.058,5.42V3.843A1.776,1.776,0,0,1,3.827,2.074H5.413a2.056,2.056,0,0,0,1.155-.431L8.016.406A1.847,1.847,0,0,1,10.326.406Z" transform="translate(1.838 1.84)" fill="none" stroke="#1e9f3b" stroke-linecap="round" stroke-linejoin="round" stroke-width="1.5" stroke-dasharray="0 0"/>
        <path id="Vector-3" data-name="Vector" d="M22,0V22H0V0Z" fill="none" stroke="#1e9f3b" stroke-width="1" opacity="0"/>
      </g>
    </g>
  </g>
</svg>
